<svg id="svg" version="1.1" xmlns="http://www.w3.org/2000/svg" xmlns:xlink="http://www.w3.org/1999/xlink" width="400" height="400" viewBox="0, 0, 400,400"><g id="svgg"><path id="path0" d="M165.900 109.103 C 165.499 109.192,165.200 109.626,165.200 110.118 L 165.200 110.978 166.078 110.100 C 167.034 109.144,166.984 108.862,165.900 109.103 M225.333 110.200 C 225.333 110.542,225.497 110.768,225.697 110.701 C 225.897 110.635,226.060 110.409,226.060 110.200 C 226.060 109.991,225.897 109.766,225.697 109.699 C 225.497 109.632,225.333 109.858,225.333 110.200 M228.000 111.400 C 228.274 111.730,228.678 112.000,228.898 112.000 C 229.121 112.000,229.078 111.735,228.800 111.400 C 228.526 111.070,228.122 110.800,227.902 110.800 C 227.679 110.800,227.722 111.065,228.000 111.400 M238.100 113.234 C 237.605 113.421,237.200 113.850,237.200 114.187 C 237.200 114.976,237.292 114.961,238.403 113.997 C 239.487 113.057,239.367 112.755,238.100 113.234 M229.404 113.593 C 229.266 113.817,229.354 114.000,229.600 114.000 C 229.846 114.000,229.949 114.160,229.828 114.355 C 229.708 114.550,229.964 114.802,230.398 114.915 C 231.060 115.089,231.123 115.004,230.791 114.383 C 230.269 113.407,229.714 113.092,229.404 113.593 M233.711 119.700 C 232.824 120.846,232.770 121.644,233.609 121.195 C 234.044 120.962,234.400 120.418,234.400 119.986 C 234.400 119.072,234.246 119.008,233.711 119.700 M225.467 123.467 C 225.006 123.927,225.175 124.400,225.800 124.400 C 226.130 124.400,226.400 124.130,226.400 123.800 C 226.400 123.175,225.927 123.006,225.467 123.467 M249.680 123.680 C 249.416 123.944,249.205 124.349,249.212 124.580 C 249.219 124.811,249.410 124.681,249.637 124.292 C 249.864 123.902,250.218 123.688,250.425 123.815 C 250.631 123.943,250.800 123.857,250.800 123.624 C 250.800 123.060,250.273 123.087,249.680 123.680 M148.800 125.902 C 148.800 126.122,149.070 126.526,149.400 126.800 C 149.735 127.078,150.000 127.121,150.000 126.898 C 150.000 126.678,149.730 126.274,149.400 126.000 C 149.065 125.722,148.800 125.679,148.800 125.902 M151.671 129.886 C 151.906 130.169,152.226 130.400,152.382 130.400 C 152.539 130.400,152.667 130.169,152.667 129.886 C 152.667 129.603,152.347 129.371,151.955 129.371 C 151.421 129.371,151.351 129.499,151.671 129.886 M237.788 129.522 C 237.575 129.675,237.343 130.070,237.273 130.400 C 237.172 130.881,237.286 130.863,237.850 130.310 C 238.558 129.614,238.510 129.005,237.788 129.522 M220.800 129.902 C 220.800 130.122,221.070 130.526,221.400 130.800 C 221.735 131.078,222.000 131.121,222.000 130.898 C 222.000 130.678,221.730 130.274,221.400 130.000 C 221.065 129.722,220.800 129.679,220.800 129.902 M233.429 132.209 C 233.005 132.529,232.765 132.898,232.895 133.028 C 233.211 133.344,234.800 132.475,234.800 131.986 C 234.800 131.448,234.334 131.524,233.429 132.209 M229.905 133.483 C 230.402 133.579,231.122 133.575,231.505 133.475 C 231.887 133.375,231.480 133.296,230.600 133.301 C 229.720 133.305,229.407 133.387,229.905 133.483 M151.505 134.683 C 152.002 134.779,152.722 134.775,153.105 134.675 C 153.487 134.575,153.080 134.496,152.200 134.501 C 151.320 134.505,151.007 134.587,151.505 134.683 M231.711 135.700 C 230.761 136.928,230.747 137.194,231.647 136.861 C 232.134 136.681,232.578 136.233,232.631 135.866 C 232.747 135.080,232.259 134.992,231.711 135.700 M131.500 139.396 C 132.215 139.707,132.800 140.134,132.800 140.345 C 132.800 140.765,133.812 140.721,134.250 140.283 C 134.576 139.957,131.929 138.793,130.913 138.816 C 130.487 138.825,130.723 139.059,131.500 139.396 M161.462 139.072 C 161.316 139.217,161.461 139.739,161.784 140.231 C 162.296 141.014,162.297 141.187,161.790 141.609 C 161.470 141.874,161.313 142.259,161.440 142.465 C 161.846 143.122,162.800 141.954,162.800 140.800 C 162.800 139.685,161.948 138.585,161.462 139.072 M256.156 139.213 C 255.317 139.531,254.590 140.723,254.991 141.124 C 255.106 141.239,255.200 141.113,255.200 140.843 C 255.200 140.573,255.356 140.449,255.547 140.567 C 255.901 140.786,257.461 139.317,257.164 139.044 C 257.074 138.961,256.620 139.037,256.156 139.213 M140.800 139.902 C 140.800 140.122,141.070 140.526,141.400 140.800 C 141.735 141.078,142.000 141.121,142.000 140.898 C 142.000 140.678,141.730 140.274,141.400 140.000 C 141.065 139.722,140.800 139.679,140.800 139.902 M253.421 141.577 C 253.034 142.004,252.812 142.589,252.927 142.877 C 253.089 143.280,253.144 143.269,253.168 142.831 C 253.186 142.519,253.498 141.934,253.862 141.531 C 254.226 141.129,254.434 140.800,254.324 140.800 C 254.214 140.800,253.808 141.150,253.421 141.577 M246.043 142.044 C 245.029 142.867,245.066 143.380,246.112 142.978 C 246.679 142.761,247.377 141.642,247.109 141.377 C 247.049 141.318,246.570 141.618,246.043 142.044 M232.800 141.902 C 232.800 142.122,233.070 142.526,233.400 142.800 C 233.735 143.078,234.000 143.121,234.000 142.898 C 234.000 142.678,233.730 142.274,233.400 142.000 C 233.065 141.722,232.800 141.679,232.800 141.902 M128.493 143.200 C 128.493 143.970,128.575 144.285,128.676 143.900 C 128.776 143.515,128.776 142.885,128.676 142.500 C 128.575 142.115,128.493 142.430,128.493 143.200 M147.275 144.025 C 147.371 144.314,147.686 144.629,147.975 144.725 C 148.275 144.825,148.425 144.675,148.325 144.375 C 148.229 144.086,147.914 143.771,147.625 143.675 C 147.325 143.575,147.175 143.725,147.275 144.025 M237.570 146.658 L 236.600 147.715 237.700 147.012 C 238.305 146.625,238.800 146.149,238.800 145.954 C 238.800 145.410,238.618 145.514,237.570 146.658 M173.919 148.672 C 173.544 148.771,173.137 149.167,173.015 149.553 C 172.858 150.047,172.015 150.409,170.164 150.777 C 168.713 151.066,167.442 151.546,167.326 151.850 C 167.191 152.199,166.484 152.400,165.386 152.400 C 162.987 152.400,162.400 153.110,162.400 156.013 C 162.400 157.702,162.583 158.514,163.046 158.884 C 163.402 159.168,164.162 159.895,164.735 160.500 C 165.309 161.105,166.008 161.600,166.289 161.600 C 166.570 161.600,166.800 161.757,166.800 161.948 C 166.800 162.139,164.398 162.377,161.462 162.477 C 156.791 162.635,155.970 162.767,154.900 163.529 C 154.227 164.008,153.222 164.400,152.667 164.400 C 150.083 164.400,149.377 168.937,151.600 171.263 C 152.260 171.954,152.800 172.669,152.800 172.852 C 152.800 173.035,153.250 173.298,153.800 173.436 C 154.350 173.574,154.800 173.942,154.800 174.253 C 154.800 174.565,155.217 174.978,155.726 175.172 C 156.236 175.366,157.341 175.991,158.182 176.562 C 159.023 177.133,160.047 177.600,160.456 177.600 C 160.865 177.600,161.200 177.789,161.200 178.020 C 161.200 178.668,163.788 179.600,165.587 179.600 C 166.731 179.600,167.200 179.769,167.200 180.181 C 167.200 181.052,169.743 181.595,173.830 181.598 C 177.520 181.600,179.200 182.324,179.200 183.912 C 179.200 184.165,179.531 184.549,179.936 184.766 C 180.341 184.983,181.260 185.709,181.979 186.380 C 182.697 187.051,183.515 187.600,183.796 187.600 C 184.078 187.600,184.603 188.050,184.963 188.600 C 185.324 189.150,185.974 189.600,186.409 189.600 C 186.844 189.600,187.200 189.778,187.200 189.995 C 187.200 190.572,189.889 191.600,191.400 191.600 C 192.307 191.600,192.884 191.873,193.299 192.500 C 194.471 194.265,209.987 193.942,210.679 192.138 C 210.807 191.804,211.530 191.600,212.583 191.600 C 214.652 191.600,216.659 190.945,216.955 190.172 C 217.076 189.857,217.619 189.600,218.161 189.600 C 219.614 189.600,221.200 188.901,221.200 188.261 C 221.200 187.918,221.819 187.603,222.800 187.446 C 223.760 187.293,224.598 186.873,224.896 186.395 C 225.169 185.958,225.666 185.600,226.000 185.600 C 226.335 185.600,227.093 185.150,227.687 184.600 C 228.280 184.050,229.037 183.600,229.369 183.600 C 229.701 183.600,230.509 183.105,231.164 182.500 C 231.820 181.895,232.636 181.168,232.978 180.884 C 234.925 179.269,233.263 174.400,230.764 174.400 C 229.978 174.400,229.272 174.084,228.824 173.530 C 228.277 172.855,227.568 172.620,225.659 172.482 C 223.108 172.297,222.490 171.865,224.173 171.442 C 224.709 171.308,225.255 170.858,225.387 170.442 C 225.519 170.027,225.994 169.590,226.443 169.473 C 226.892 169.355,227.353 168.903,227.467 168.467 C 227.581 168.031,228.031 167.581,228.467 167.467 C 228.903 167.353,229.353 166.903,229.467 166.467 C 229.581 166.031,230.031 165.581,230.467 165.467 C 230.903 165.353,231.355 164.892,231.473 164.443 C 231.590 163.994,232.018 163.521,232.423 163.393 C 232.828 163.264,233.282 162.773,233.431 162.302 C 233.581 161.830,234.046 161.165,234.465 160.822 C 235.541 159.944,235.686 156.315,234.685 155.315 C 233.243 153.873,203.200 154.353,203.200 155.818 C 203.200 156.300,202.211 156.400,197.418 156.400 L 191.636 156.400 191.377 155.019 C 191.224 154.201,190.727 153.382,190.159 153.010 C 189.632 152.664,189.200 152.111,189.200 151.781 C 189.200 151.451,188.750 151.009,188.200 150.800 C 187.650 150.591,187.200 150.226,187.200 149.989 C 187.200 148.724,177.412 147.753,173.919 148.672 M258.068 151.727 C 257.051 152.810,256.954 153.269,257.811 152.940 C 258.446 152.697,259.388 151.255,259.101 150.967 C 259.010 150.877,258.546 151.219,258.068 151.727 M238.872 152.197 C 239.349 152.745,239.810 153.123,239.897 153.036 C 240.187 152.746,239.015 151.200,238.506 151.200 C 238.203 151.200,238.347 151.593,238.872 152.197 M242.800 153.902 C 242.800 154.122,243.070 154.526,243.400 154.800 C 243.735 155.078,244.000 155.121,244.000 154.898 C 244.000 154.678,243.730 154.274,243.400 154.000 C 243.065 153.722,242.800 153.679,242.800 153.902 M139.559 156.151 C 140.108 156.813,141.600 157.277,141.600 156.786 C 141.600 156.347,140.800 155.854,139.846 155.706 C 139.240 155.612,139.184 155.699,139.559 156.151 M182.140 157.700 C 183.289 158.855,184.535 160.452,184.909 161.249 C 186.030 163.636,186.197 163.657,203.536 163.522 C 219.233 163.400,220.187 163.469,218.048 164.575 C 217.415 164.902,216.791 165.447,216.661 165.785 C 216.522 166.146,215.937 166.400,215.243 166.400 C 214.566 166.400,213.554 166.827,212.873 167.400 C 211.982 168.150,211.224 168.400,209.842 168.400 C 207.256 168.400,206.400 169.334,206.400 172.154 C 206.400 176.114,208.023 177.600,212.350 177.600 C 214.170 177.600,214.704 177.754,215.104 178.395 C 215.402 178.873,216.240 179.293,217.200 179.446 C 218.080 179.587,218.800 179.836,218.800 180.000 C 218.800 180.164,218.080 180.413,217.200 180.554 C 216.240 180.707,215.402 181.127,215.104 181.605 C 214.786 182.114,214.172 182.400,213.397 182.400 C 212.731 182.400,211.505 182.863,210.672 183.429 C 208.293 185.045,196.215 185.065,193.843 183.455 C 192.988 182.875,192.043 182.400,191.744 182.400 C 191.445 182.400,190.885 182.122,190.500 181.782 C 188.721 180.212,186.290 178.400,185.962 178.400 C 185.763 178.400,185.600 178.168,185.600 177.885 C 185.600 177.602,185.067 176.747,184.416 175.985 C 183.765 175.223,183.225 174.377,183.216 174.103 C 183.207 173.830,182.840 173.382,182.400 173.107 C 181.960 172.832,181.600 172.409,181.600 172.165 C 181.600 171.438,180.370 169.200,179.971 169.200 C 179.767 169.200,179.600 168.867,179.600 168.460 C 179.600 167.150,178.739 165.200,178.161 165.200 C 177.762 165.200,177.600 164.676,177.600 163.387 C 177.600 162.390,177.332 160.934,177.005 160.151 C 176.356 158.598,176.738 157.200,177.811 157.200 C 178.131 157.200,178.618 156.840,178.893 156.400 C 179.600 155.268,179.804 155.350,182.140 157.700 M146.133 156.514 C 146.133 156.797,146.453 157.029,146.845 157.029 C 147.379 157.029,147.449 156.901,147.129 156.514 C 146.894 156.231,146.574 156.000,146.418 156.000 C 146.261 156.000,146.133 156.231,146.133 156.514 M252.000 157.400 C 252.274 157.730,252.678 158.000,252.898 158.000 C 253.121 158.000,253.078 157.735,252.800 157.400 C 252.526 157.070,252.122 156.800,251.902 156.800 C 251.679 156.800,251.722 157.065,252.000 157.400 M243.206 161.900 C 243.203 162.395,243.380 162.800,243.600 162.800 C 244.101 162.800,244.101 162.376,243.600 161.600 C 243.286 161.115,243.211 161.172,243.206 161.900 M126.744 167.878 C 127.254 168.850,128.000 169.449,128.000 168.886 C 128.000 168.687,127.614 168.181,127.142 167.762 C 126.290 167.005,126.287 167.006,126.744 167.878 M132.800 169.771 C 132.800 171.024,135.552 171.591,136.590 170.552 C 137.499 169.644,137.062 169.410,135.891 170.177 C 135.017 170.750,134.859 170.753,134.407 170.209 C 133.952 169.660,132.800 169.347,132.800 169.771 M170.587 172.324 C 167.409 172.533,166.450 171.644,169.100 170.946 C 170.387 170.607,170.733 170.668,171.536 171.375 L 172.473 172.200 170.587 172.324 M142.100 171.212 C 141.092 171.618,140.885 172.400,141.786 172.400 C 142.108 172.400,142.565 172.040,142.800 171.600 C 143.035 171.160,143.177 170.811,143.114 170.825 C 143.051 170.839,142.595 171.013,142.100 171.212 M255.200 173.151 C 255.200 173.535,256.538 174.800,256.946 174.800 C 257.101 174.800,257.047 174.461,256.825 174.047 C 256.402 173.256,255.200 172.593,255.200 173.151 M135.660 175.842 C 134.931 176.666,135.400 177.057,136.181 176.276 C 136.521 175.936,136.800 175.554,136.800 175.429 C 136.800 175.009,136.206 175.224,135.660 175.842 M257.455 175.800 C 257.582 176.130,257.846 176.400,258.043 176.400 C 258.239 176.400,258.400 176.130,258.400 175.800 C 258.400 175.470,258.136 175.200,257.813 175.200 C 257.455 175.200,257.315 175.435,257.455 175.800 M121.600 179.600 C 122.070 180.260,122.532 180.800,122.627 180.800 C 122.991 180.800,122.570 179.835,121.900 179.133 C 120.819 178.001,120.650 178.265,121.600 179.600 M243.462 181.531 C 242.699 182.375,242.619 182.800,243.224 182.800 C 243.457 182.800,243.565 182.665,243.466 182.500 C 243.229 182.109,244.240 181.174,244.557 181.491 C 244.691 181.624,244.800 181.523,244.800 181.267 C 244.800 180.582,244.217 180.697,243.462 181.531 M143.733 182.267 C 143.733 182.650,144.305 182.781,145.767 182.733 C 147.500 182.675,147.578 182.642,146.300 182.509 C 145.475 182.422,144.800 182.213,144.800 182.043 C 144.800 181.872,144.560 181.733,144.267 181.733 C 143.973 181.733,143.733 181.973,143.733 182.267 M123.200 182.186 C 123.200 182.701,124.769 183.173,125.038 182.739 C 125.209 182.463,125.149 182.384,124.889 182.545 C 124.651 182.692,124.342 182.630,124.204 182.407 C 123.953 182.000,123.200 181.835,123.200 182.186 M250.000 182.951 C 250.000 183.034,250.270 183.326,250.600 183.600 C 251.091 184.008,251.200 183.980,251.200 183.449 C 251.200 183.092,250.930 182.800,250.600 182.800 C 250.270 182.800,250.000 182.868,250.000 182.951 M141.246 183.867 C 141.221 184.124,141.084 184.664,140.941 185.067 C 140.740 185.636,140.794 185.697,141.179 185.342 C 141.452 185.091,141.589 184.551,141.484 184.142 C 141.379 183.734,141.272 183.610,141.246 183.867 M255.200 184.010 C 255.200 184.235,255.662 184.595,256.226 184.810 C 257.636 185.346,257.690 185.314,256.907 184.400 C 256.180 183.550,255.200 183.326,255.200 184.010 M258.900 185.476 C 259.285 185.576,259.915 185.576,260.300 185.476 C 260.685 185.375,260.370 185.293,259.600 185.293 C 258.830 185.293,258.515 185.375,258.900 185.476 M243.055 189.000 C 243.182 189.330,243.558 189.600,243.892 189.600 C 244.385 189.600,244.405 189.488,244.000 189.000 C 243.726 188.670,243.350 188.400,243.164 188.400 C 242.977 188.400,242.929 188.670,243.055 189.000 M254.000 189.400 C 254.274 189.730,254.678 190.000,254.898 190.000 C 255.121 190.000,255.078 189.735,254.800 189.400 C 254.526 189.070,254.122 188.800,253.902 188.800 C 253.679 188.800,253.722 189.065,254.000 189.400 M148.400 190.824 C 148.400 191.057,148.220 191.136,148.000 191.000 C 147.780 190.864,147.600 191.061,147.600 191.438 C 147.600 192.073,147.659 192.070,148.400 191.400 C 149.302 190.584,149.375 190.400,148.800 190.400 C 148.580 190.400,148.400 190.591,148.400 190.824 M238.262 194.700 C 238.160 194.865,238.852 195.000,239.800 195.000 C 240.748 195.000,241.440 194.865,241.338 194.700 C 241.236 194.535,240.544 194.400,239.800 194.400 C 239.056 194.400,238.364 194.535,238.262 194.700 M146.000 195.566 C 146.000 195.767,145.370 196.580,144.600 197.373 C 143.146 198.870,142.812 199.470,143.738 198.920 C 145.150 198.081,147.212 195.200,146.400 195.200 C 146.180 195.200,146.000 195.365,146.000 195.566 M152.198 196.003 C 151.895 196.494,152.995 196.974,153.587 196.608 C 153.821 196.463,153.909 196.177,153.783 195.972 C 153.478 195.478,152.511 195.497,152.198 196.003 M243.200 196.642 C 243.200 196.973,244.477 197.970,244.924 197.987 C 245.102 197.994,245.137 197.821,245.001 197.602 C 244.680 197.082,243.200 196.293,243.200 196.642 M149.192 197.410 C 148.501 198.243,149.011 198.647,149.781 197.876 C 150.121 197.536,150.400 197.154,150.400 197.029 C 150.400 196.584,149.691 196.808,149.192 197.410 M147.339 199.867 C 147.194 200.270,146.977 200.780,146.855 201.000 C 146.734 201.220,147.043 201.130,147.544 200.800 C 148.519 200.156,148.726 199.509,148.030 199.277 C 147.794 199.198,147.483 199.463,147.339 199.867 M227.234 204.100 C 226.775 205.312,227.044 205.495,227.897 204.550 C 228.654 203.712,229.102 203.623,229.927 204.146 C 230.558 204.546,230.986 204.224,230.616 203.627 C 230.092 202.777,227.602 203.126,227.234 204.100 M160.089 205.423 C 159.600 205.765,159.205 206.260,159.212 206.523 C 159.219 206.785,159.410 206.681,159.637 206.292 C 159.864 205.902,160.198 205.675,160.379 205.787 C 160.561 205.899,160.932 205.723,161.204 205.396 C 161.850 204.617,161.217 204.633,160.089 205.423 M153.822 210.000 L 153.115 211.400 154.005 210.542 C 154.494 210.070,154.812 209.440,154.712 209.142 C 154.601 208.815,154.249 209.155,153.822 210.000 M239.213 209.686 C 239.196 210.594,240.639 211.397,241.040 210.701 C 241.198 210.425,241.187 210.327,241.014 210.483 C 240.842 210.639,240.369 210.369,239.964 209.883 C 239.341 209.137,239.225 209.106,239.213 209.686 M259.360 210.560 C 259.214 210.942,259.292 211.452,259.534 211.694 C 259.854 212.014,260.046 211.945,260.240 211.440 C 260.386 211.058,260.308 210.548,260.066 210.306 C 259.746 209.986,259.554 210.055,259.360 210.560 M236.006 211.500 C 236.017 212.047,236.753 212.981,236.988 212.746 C 237.303 212.431,236.801 211.200,236.357 211.200 C 236.161 211.200,236.003 211.335,236.006 211.500 M152.060 212.242 C 151.762 212.578,151.623 212.956,151.750 213.083 C 152.028 213.361,153.200 212.446,153.200 211.951 C 153.200 211.420,152.665 211.557,152.060 212.242 M245.084 214.000 C 245.199 214.440,245.452 214.800,245.647 214.800 C 246.065 214.800,246.079 214.672,245.757 213.833 C 245.405 212.914,244.837 213.055,245.084 214.000 M237.300 214.000 C 237.400 214.369,237.988 214.622,238.831 214.656 C 240.085 214.708,240.099 214.697,239.001 214.520 C 238.342 214.414,237.653 214.119,237.471 213.864 C 237.247 213.551,237.191 213.595,237.300 214.000 M133.200 214.357 C 133.200 214.801,134.431 215.303,134.746 214.988 C 134.873 214.861,134.712 214.589,134.388 214.384 C 133.640 213.911,133.200 213.901,133.200 214.357 M241.376 215.367 C 242.266 216.092,242.800 216.179,242.800 215.600 C 242.800 215.380,242.635 215.200,242.433 215.200 C 242.231 215.200,241.736 215.095,241.333 214.967 C 240.662 214.754,240.666 214.788,241.376 215.367 M229.084 220.000 C 229.199 220.440,229.452 220.800,229.647 220.800 C 230.065 220.800,230.079 220.672,229.757 219.833 C 229.405 218.914,228.837 219.055,229.084 220.000 M143.042 221.035 C 142.713 221.892,142.733 222.000,143.224 222.000 C 143.457 222.000,143.545 221.835,143.421 221.634 C 143.297 221.433,143.412 221.196,143.678 221.107 C 144.017 220.994,144.030 220.866,143.722 220.676 C 143.481 220.527,143.175 220.688,143.042 221.035 M231.200 222.186 C 231.200 222.701,232.769 223.173,233.038 222.739 C 233.209 222.463,233.149 222.384,232.889 222.545 C 232.651 222.692,232.342 222.630,232.204 222.407 C 231.953 222.000,231.200 221.835,231.200 222.186 M284.600 226.693 C 284.160 226.803,283.322 227.232,282.738 227.647 C 282.080 228.114,280.997 228.400,279.887 228.400 C 278.039 228.400,275.200 229.345,275.200 229.960 C 275.200 230.152,274.393 230.430,273.406 230.578 C 272.388 230.731,271.393 231.156,271.106 231.560 C 270.828 231.952,270.197 232.487,269.705 232.748 C 269.212 233.009,268.698 233.668,268.561 234.212 C 268.425 234.755,268.079 235.200,267.792 235.200 C 267.162 235.200,266.621 238.007,267.013 239.242 C 267.442 240.593,269.743 242.680,271.142 242.987 L 272.400 243.264 272.400 245.985 C 272.400 248.370,272.301 248.733,271.600 248.916 C 271.160 249.031,270.800 249.375,270.800 249.680 C 270.800 249.997,270.048 250.435,269.044 250.704 C 266.594 251.359,265.590 254.520,266.892 257.481 C 267.542 258.960,267.822 259.120,270.297 259.429 L 272.400 259.692 272.400 262.216 C 272.400 265.391,273.160 268.800,273.869 268.800 C 274.230 268.800,274.400 269.362,274.400 270.554 C 274.400 274.169,275.958 275.564,280.020 275.586 C 283.277 275.603,283.600 275.293,283.600 272.149 C 283.600 269.751,283.013 268.400,281.971 268.400 C 281.767 268.400,281.600 267.854,281.600 267.187 C 281.600 265.718,280.602 263.200,280.020 263.200 C 279.767 263.200,279.600 262.110,279.600 260.463 L 279.600 257.727 281.159 257.260 C 282.016 257.003,282.820 256.524,282.946 256.196 C 283.113 255.760,283.815 255.600,285.557 255.600 C 287.490 255.600,288.154 255.418,289.084 254.637 C 290.116 253.767,290.678 253.658,294.814 253.515 C 297.336 253.428,299.694 253.220,300.054 253.053 C 301.095 252.570,300.539 256.359,299.438 257.250 C 298.654 257.884,298.592 258.383,298.474 265.005 C 298.288 275.406,298.441 275.600,306.805 275.600 L 311.972 275.600 313.200 274.400 C 313.875 273.740,314.574 273.200,314.753 273.200 C 314.931 273.200,315.259 272.795,315.479 272.300 C 316.107 270.894,325.939 271.175,327.405 272.642 C 328.056 273.292,328.819 273.600,329.782 273.600 C 330.562 273.600,331.200 273.784,331.200 274.010 C 331.200 274.857,333.576 275.281,339.200 275.435 C 345.944 275.620,346.803 275.373,347.371 273.090 C 347.574 272.271,347.876 271.600,348.042 271.600 C 348.784 271.600,349.600 270.224,349.600 268.971 C 349.600 267.120,350.166 267.240,350.758 269.218 C 351.411 271.395,352.121 271.600,359.026 271.600 C 363.944 271.600,364.800 271.691,364.800 272.213 C 364.800 272.549,365.115 272.937,365.500 273.075 C 365.885 273.212,366.588 273.791,367.061 274.362 C 368.299 275.854,376.742 275.989,377.384 274.526 C 377.595 274.045,378.180 273.464,378.684 273.235 C 380.218 272.536,380.131 266.369,378.566 264.884 C 378.035 264.380,377.600 263.538,377.600 263.013 C 377.600 262.471,377.168 261.718,376.600 261.271 C 376.050 260.839,375.600 260.290,375.600 260.052 C 375.600 259.813,375.150 259.324,374.600 258.963 C 374.050 258.603,373.600 258.079,373.600 257.800 C 373.600 257.521,373.150 256.997,372.600 256.637 C 372.009 256.249,371.600 255.602,371.600 255.053 C 371.600 254.542,371.240 253.798,370.800 253.400 C 369.843 252.534,369.770 251.373,370.620 250.523 C 370.960 250.182,371.343 249.385,371.470 248.752 C 371.784 247.181,372.195 247.305,372.953 249.200 C 373.305 250.080,373.752 250.800,373.947 250.800 C 374.141 250.800,374.409 251.344,374.542 252.008 C 374.731 252.953,375.047 253.269,375.992 253.458 C 376.656 253.591,377.200 253.851,377.200 254.036 C 377.200 254.613,378.794 255.256,379.595 255.002 C 382.188 254.179,382.924 246.869,380.604 244.985 C 380.052 244.537,379.600 243.787,379.600 243.319 C 379.600 241.126,376.249 238.627,373.107 238.477 C 369.953 238.327,367.200 239.129,367.200 240.198 C 367.200 240.521,366.774 240.892,366.254 241.022 C 365.584 241.190,365.149 241.747,364.763 242.930 C 364.462 243.848,363.853 244.899,363.408 245.265 C 362.670 245.873,362.600 246.398,362.600 251.345 C 362.600 256.151,362.522 256.780,361.905 256.941 C 360.912 257.200,360.400 258.861,360.400 261.826 C 360.400 264.398,360.399 264.400,359.242 264.400 C 356.167 264.400,354.411 260.047,356.553 257.737 C 357.083 257.165,357.602 256.001,357.721 255.115 C 357.853 254.129,358.252 253.299,358.767 252.938 C 359.225 252.617,359.600 252.083,359.600 251.751 C 359.600 251.418,360.038 250.572,360.573 249.871 C 361.182 249.072,361.652 247.772,361.827 246.397 C 361.981 245.189,362.262 243.898,362.452 243.529 C 362.700 243.047,362.496 242.500,361.727 241.586 C 359.461 238.894,353.596 241.083,352.635 244.980 C 352.476 245.629,351.907 246.565,351.372 247.061 C 350.838 247.556,350.400 248.221,350.400 248.538 C 350.400 248.855,350.154 249.209,349.854 249.324 C 349.554 249.439,349.066 250.354,348.770 251.356 C 347.586 255.366,347.351 253.815,347.529 243.165 C 347.735 230.805,347.734 230.800,344.219 230.800 C 341.688 230.800,340.941 231.358,340.587 233.513 C 340.123 236.334,339.439 237.211,339.180 235.316 C 339.059 234.429,338.654 233.237,338.280 232.666 C 337.906 232.095,337.600 231.185,337.600 230.643 C 337.600 228.316,332.960 227.345,331.181 229.300 C 330.731 229.795,330.015 230.563,329.590 231.006 C 329.165 231.449,328.693 232.435,328.541 233.197 C 328.388 233.959,327.906 234.872,327.469 235.225 C 326.823 235.749,326.642 236.494,326.497 239.234 C 326.377 241.506,326.132 242.748,325.744 243.055 C 324.837 243.774,324.400 245.915,324.400 249.648 C 324.400 252.156,324.243 253.232,323.828 253.577 C 323.010 254.255,322.400 257.523,322.400 261.220 L 322.400 264.400 321.000 264.400 L 319.600 264.400 319.600 256.384 L 319.600 248.368 317.923 246.725 C 315.473 244.323,311.046 243.746,309.269 245.597 C 308.901 245.980,307.924 246.416,307.097 246.566 C 306.141 246.739,305.360 247.194,304.951 247.819 C 304.597 248.358,304.081 248.800,303.803 248.800 C 303.525 248.800,303.073 249.340,302.800 250.000 C 302.170 251.522,301.202 251.582,301.195 250.100 C 301.179 246.891,300.111 246.399,293.172 246.402 C 287.911 246.405,285.426 246.835,285.052 247.808 C 284.884 248.247,284.151 248.400,282.213 248.400 L 279.600 248.400 279.600 243.027 C 279.600 238.052,279.658 237.636,280.380 237.406 C 280.808 237.270,281.263 236.833,281.389 236.435 C 281.563 235.887,282.180 235.652,283.910 235.474 C 285.539 235.306,286.392 235.002,286.864 234.419 C 287.439 233.710,287.985 233.600,290.920 233.600 L 294.311 233.600 294.571 234.989 C 295.044 237.506,298.956 238.644,300.800 236.800 C 302.162 235.438,301.964 230.123,300.500 228.735 C 299.895 228.162,299.168 227.402,298.884 227.046 C 298.375 226.408,286.875 226.123,284.600 226.693 M40.091 232.816 C 39.591 233.017,39.077 233.455,38.948 233.790 C 38.795 234.189,38.186 234.400,37.186 234.400 C 35.293 234.400,34.400 235.238,34.400 237.014 C 34.400 237.947,34.158 238.501,33.627 238.786 C 33.202 239.013,32.740 239.559,32.600 240.000 C 32.460 240.440,32.084 240.800,31.763 240.800 C 31.443 240.800,31.009 241.250,30.800 241.800 C 30.591 242.350,30.157 242.800,29.837 242.800 C 29.516 242.800,29.145 243.144,29.011 243.564 C 28.878 243.985,28.326 244.619,27.784 244.973 C 27.243 245.328,26.800 245.890,26.800 246.222 C 26.800 246.554,26.529 246.929,26.198 247.056 C 25.867 247.183,25.292 247.942,24.921 248.744 C 24.549 249.545,23.830 250.596,23.323 251.081 C 22.815 251.565,22.400 252.240,22.400 252.581 C 22.400 252.921,22.166 253.200,21.880 253.200 C 21.347 253.200,20.400 255.329,20.400 256.528 C 20.400 256.898,20.158 257.200,19.863 257.200 C 18.880 257.200,18.400 260.188,18.400 266.318 C 18.400 272.327,18.680 273.600,20.002 273.600 C 20.191 273.600,20.460 273.960,20.600 274.399 C 20.739 274.839,21.336 275.318,21.927 275.465 C 22.517 275.612,23.180 275.960,23.400 276.237 C 24.584 277.732,30.085 277.687,30.663 276.179 C 30.811 275.794,31.481 275.600,32.663 275.600 C 34.416 275.600,36.800 274.701,36.800 274.040 C 36.800 273.853,37.326 273.595,37.968 273.466 C 38.630 273.334,39.241 272.900,39.379 272.466 C 39.545 271.943,40.142 271.616,41.252 271.438 C 42.376 271.258,42.942 270.944,43.078 270.423 C 43.187 270.007,43.697 269.562,44.211 269.433 C 44.726 269.304,45.247 268.883,45.369 268.498 C 45.491 268.114,46.223 267.601,46.995 267.359 L 48.400 266.919 48.425 269.960 C 48.468 275.169,49.023 279.541,49.741 280.335 C 50.246 280.893,50.400 281.872,50.400 284.531 C 50.400 287.597,50.504 288.104,51.300 288.893 C 51.795 289.384,52.385 290.149,52.610 290.593 C 52.836 291.037,53.466 291.462,54.010 291.538 C 54.555 291.615,55.144 291.930,55.320 292.238 C 56.007 293.445,58.306 292.920,59.031 291.391 C 59.946 289.464,59.634 286.119,58.452 285.161 C 57.615 284.484,57.600 284.249,57.600 271.615 L 57.600 258.758 58.600 257.286 C 59.150 256.477,59.600 255.316,59.600 254.707 L 59.600 253.600 64.000 253.600 C 68.258 253.600,70.088 254.265,67.611 254.913 C 67.058 255.058,66.747 255.590,66.570 256.699 C 66.344 258.108,66.160 258.318,64.868 258.640 C 61.408 259.501,61.301 266.887,64.742 267.437 L 66.308 267.688 66.489 269.869 C 66.614 271.369,66.934 272.323,67.516 272.925 C 67.981 273.406,68.731 274.205,69.181 274.700 C 70.508 276.158,81.718 276.080,83.438 274.600 C 84.077 274.051,84.992 273.601,85.471 273.600 C 86.265 273.600,87.323 272.880,87.664 272.107 C 87.739 271.938,88.475 271.488,89.300 271.106 C 90.125 270.725,90.800 270.159,90.800 269.849 C 90.800 269.395,91.586 268.800,92.188 268.800 C 92.255 268.800,92.382 270.080,92.470 271.644 C 92.672 275.208,93.177 275.683,96.599 275.517 C 98.646 275.417,99.058 275.267,99.395 274.500 C 99.612 274.005,99.914 273.600,100.066 273.600 C 100.755 273.600,101.600 272.232,101.600 271.117 C 101.600 270.324,101.953 269.565,102.600 268.965 C 103.305 268.312,103.600 267.619,103.600 266.619 C 103.600 265.614,103.778 265.200,104.210 265.200 C 104.892 265.200,105.600 263.658,105.600 262.174 C 105.600 261.638,105.825 261.200,106.100 261.200 C 106.475 261.201,106.600 262.555,106.600 266.636 C 106.600 271.584,106.672 272.131,107.400 272.736 C 107.840 273.101,108.519 273.895,108.909 274.500 C 110.031 276.239,117.200 275.989,117.200 274.210 C 117.200 273.869,117.549 273.600,117.991 273.600 C 118.426 273.600,119.076 273.150,119.437 272.600 C 120.103 271.583,120.800 271.276,120.800 272.000 C 120.800 272.219,121.499 273.119,122.353 274.000 L 123.906 275.600 130.125 275.600 C 136.366 275.600,137.600 275.331,137.600 273.971 C 137.600 273.767,138.217 273.600,138.971 273.600 C 140.273 273.600,141.600 272.778,141.600 271.971 C 141.600 271.767,141.813 271.600,142.074 271.600 C 142.335 271.600,142.965 271.209,143.474 270.730 L 144.400 269.861 144.400 271.930 C 144.400 274.814,145.240 275.600,148.320 275.600 C 150.669 275.600,151.600 275.150,151.600 274.016 C 151.600 273.673,151.948 273.175,152.374 272.909 C 152.863 272.604,153.247 271.760,153.419 270.613 C 153.568 269.616,153.837 268.800,154.016 268.800 C 154.408 268.800,155.600 266.496,155.600 265.739 C 155.600 265.442,155.955 264.845,156.390 264.410 C 156.824 263.976,157.303 263.121,157.454 262.510 C 157.606 261.900,158.040 261.179,158.419 260.909 C 158.798 260.639,159.212 260.008,159.337 259.507 C 159.463 259.006,160.258 257.920,161.103 257.095 L 162.639 255.595 166.520 255.497 C 169.986 255.410,170.401 255.475,170.400 256.100 C 170.400 256.485,170.126 256.800,169.790 256.800 C 168.707 256.800,168.400 258.720,168.400 265.498 C 168.400 275.453,168.518 275.600,176.502 275.600 C 181.322 275.600,183.200 275.222,183.200 274.253 C 183.200 273.942,183.650 273.574,184.200 273.436 C 184.750 273.298,185.200 273.014,185.200 272.806 C 185.200 272.598,185.740 271.875,186.400 271.200 C 187.204 270.378,187.600 269.569,187.600 268.750 C 187.600 267.965,187.922 267.268,188.500 266.800 C 189.372 266.094,189.404 265.818,189.529 257.836 L 189.659 249.600 191.140 249.600 C 191.955 249.600,193.015 249.325,193.495 248.989 L 194.368 248.377 194.484 261.224 L 194.600 274.072 195.563 274.851 C 197.056 276.060,202.825 275.798,203.396 274.496 C 203.614 273.999,204.100 273.495,204.476 273.376 C 204.852 273.257,205.281 272.763,205.429 272.280 C 205.578 271.796,206.036 271.079,206.447 270.687 C 206.858 270.295,207.307 269.271,207.445 268.412 C 207.727 266.645,208.621 266.005,209.025 267.279 C 209.382 268.403,211.739 270.721,213.021 271.208 C 215.330 272.086,220.800 271.251,220.800 270.020 C 220.800 269.269,222.339 269.577,222.594 270.380 C 222.730 270.808,223.183 271.267,223.600 271.400 C 224.017 271.533,224.470 271.992,224.606 272.420 C 224.743 272.849,225.016 273.200,225.213 273.200 C 225.411 273.200,226.125 273.740,226.800 274.400 C 229.049 276.598,236.584 276.115,237.570 273.708 C 237.820 273.099,238.287 272.150,238.607 271.600 C 239.481 270.096,239.372 267.714,238.400 267.107 C 237.835 266.754,237.600 266.174,237.600 265.132 C 237.600 263.801,236.806 262.400,236.052 262.400 C 235.892 262.400,235.533 261.770,235.255 261.000 C 234.976 260.230,234.400 259.414,233.974 259.186 C 233.548 258.958,233.200 258.510,233.200 258.189 C 233.200 257.869,232.840 257.382,232.400 257.107 C 231.960 256.832,231.600 256.385,231.600 256.113 C 231.600 255.841,231.150 255.324,230.600 254.963 C 229.116 253.991,229.128 250.109,230.618 248.618 C 231.995 247.241,232.258 247.326,232.514 249.234 C 233.076 253.422,239.400 256.694,240.990 253.620 C 241.943 251.776,241.791 247.998,240.696 246.356 C 240.199 245.610,239.573 244.505,239.305 243.900 C 239.037 243.295,238.638 242.800,238.419 242.800 C 238.199 242.800,237.666 242.022,237.233 241.071 C 236.246 238.906,234.513 238.223,230.634 238.470 C 227.913 238.643,227.925 238.637,225.281 241.281 C 222.388 244.174,222.612 243.472,222.462 250.097 C 222.329 255.920,222.282 256.218,221.362 257.071 C 220.761 257.628,220.400 258.409,220.400 259.154 C 220.400 259.956,220.162 260.422,219.671 260.578 C 219.269 260.705,218.538 261.185,218.045 261.644 C 216.015 263.535,215.658 262.225,215.521 252.376 C 215.385 242.580,215.448 242.783,212.482 242.498 C 210.177 242.277,208.908 242.832,208.561 244.212 C 208.425 244.755,208.100 245.200,207.840 245.200 C 207.205 245.200,206.400 248.335,206.400 250.806 C 206.400 252.326,206.255 252.800,205.790 252.800 C 205.126 252.800,204.400 254.331,204.400 255.730 C 204.400 256.213,204.057 256.822,203.639 257.083 C 203.200 257.357,202.761 258.244,202.604 259.179 C 201.951 263.039,201.600 260.253,201.600 251.223 C 201.600 240.409,201.597 240.400,198.354 240.400 C 197.418 240.400,196.802 240.183,196.655 239.800 C 196.353 239.011,193.614 239.003,192.576 239.787 C 192.149 240.110,191.365 240.380,190.834 240.387 C 189.689 240.402,186.407 243.454,186.403 244.508 C 186.400 245.213,186.041 245.219,183.546 244.550 C 182.548 244.283,179.600 245.053,179.070 245.720 C 178.812 246.045,177.924 246.429,177.097 246.574 C 176.134 246.743,175.363 247.190,174.951 247.819 C 174.597 248.358,174.049 248.800,173.733 248.800 C 173.417 248.800,172.970 249.340,172.740 250.000 C 172.231 251.460,171.315 251.555,170.800 250.200 C 170.591 249.650,170.239 249.200,170.018 249.200 C 169.796 249.200,169.499 248.737,169.357 248.171 C 168.806 245.974,163.367 245.628,160.400 247.600 C 159.410 248.258,158.379 248.797,158.109 248.798 C 157.839 248.799,157.324 249.250,156.963 249.800 C 156.603 250.350,156.054 250.800,155.744 250.800 C 155.434 250.800,155.009 251.250,154.800 251.800 C 154.122 253.582,153.600 252.898,153.600 250.229 C 153.600 247.671,153.025 246.400,151.868 246.400 C 151.606 246.400,151.168 246.040,150.893 245.600 C 150.118 244.359,145.200 244.572,145.200 245.847 C 145.200 246.151,144.867 246.400,144.460 246.400 C 141.984 246.400,138.620 250.380,139.961 251.721 C 140.203 251.963,140.400 252.651,140.400 253.251 C 140.400 254.990,141.342 255.600,144.029 255.600 L 146.400 255.600 146.400 258.000 L 146.400 260.400 145.029 260.400 C 143.746 260.400,142.400 261.220,142.400 262.002 C 142.400 262.191,142.085 262.447,141.700 262.571 C 141.315 262.694,140.477 263.246,139.838 263.798 C 139.199 264.349,138.444 264.800,138.160 264.800 C 137.877 264.800,137.410 265.133,137.123 265.540 C 136.835 265.947,135.902 266.532,135.050 266.839 C 134.197 267.146,133.413 267.623,133.307 267.899 C 133.055 268.554,128.732 268.572,128.080 267.920 C 126.748 266.588,127.499 262.579,129.367 261.048 C 130.339 260.252,131.323 259.600,131.554 259.600 C 132.064 259.600,133.997 257.875,136.387 255.286 C 137.838 253.715,138.222 248.280,136.971 247.029 C 135.357 245.414,125.477 246.441,125.018 248.271 C 124.890 248.782,124.606 249.200,124.386 249.200 C 123.850 249.200,122.403 251.620,122.401 252.521 C 122.401 252.918,121.950 253.905,121.400 254.714 C 120.850 255.523,120.400 256.652,120.400 257.222 C 120.400 258.086,120.151 258.321,118.910 258.629 C 117.134 259.071,116.414 260.254,116.406 262.744 C 116.400 264.515,115.223 266.378,114.100 266.393 C 113.410 266.403,113.469 265.225,114.172 264.955 C 115.039 264.623,115.600 262.569,115.600 259.728 C 115.600 257.843,115.755 257.115,116.192 256.948 C 118.307 256.136,118.118 246.095,115.966 244.983 C 114.404 244.175,109.799 244.199,109.116 245.019 C 108.832 245.360,108.366 245.855,108.081 246.119 C 107.795 246.384,107.345 246.834,107.081 247.119 C 106.816 247.405,106.366 247.855,106.081 248.119 C 105.146 248.985,104.781 249.389,104.199 250.200 C 103.684 250.918,103.624 250.624,103.613 247.329 C 103.600 243.638,103.160 242.400,101.860 242.400 C 101.595 242.400,101.070 242.040,100.693 241.600 C 99.753 240.502,96.345 240.470,95.316 241.550 C 94.829 242.061,93.843 242.361,92.234 242.489 C 90.439 242.631,89.698 242.885,89.169 243.538 C 88.786 244.012,88.305 244.400,88.102 244.400 C 87.899 244.400,87.251 244.940,86.663 245.600 C 86.075 246.260,85.444 246.800,85.261 246.800 C 85.078 246.800,84.699 247.295,84.418 247.900 L 83.908 249.000 83.534 248.011 C 82.950 246.467,83.077 246.480,67.957 246.442 C 53.774 246.407,52.009 246.546,51.033 247.777 C 50.781 248.093,49.555 248.391,48.105 248.486 C 46.243 248.609,45.375 248.872,44.680 249.525 C 44.076 250.092,43.239 250.400,42.300 250.400 C 40.390 250.400,38.800 251.031,38.800 251.790 C 38.800 252.196,38.413 252.400,37.644 252.400 C 35.757 252.400,34.726 253.553,34.498 255.916 C 34.302 257.963,35.166 260.800,35.986 260.800 C 36.178 260.800,36.605 260.904,36.936 261.031 C 37.267 261.158,37.888 260.912,38.315 260.485 C 39.438 259.362,43.739 258.993,43.163 260.069 C 42.948 260.471,42.512 260.800,42.195 260.800 C 41.878 260.800,41.324 261.250,40.963 261.800 C 40.603 262.350,40.071 262.800,39.781 262.800 C 39.491 262.800,39.152 263.115,39.027 263.500 C 38.902 263.885,38.124 264.519,37.300 264.909 C 34.000 266.470,31.793 267.696,31.667 268.039 C 31.593 268.237,30.198 268.400,28.567 268.400 L 25.600 268.400 25.600 265.272 C 25.600 262.434,25.693 262.064,26.600 261.275 C 27.150 260.797,27.600 260.122,27.600 259.776 C 27.600 259.430,28.050 258.557,28.600 257.836 C 29.150 257.114,29.600 256.329,29.600 256.089 C 29.600 255.850,29.960 255.540,30.400 255.400 C 30.840 255.260,31.200 254.973,31.200 254.762 C 31.200 254.261,38.261 247.200,38.762 247.200 C 38.973 247.200,39.254 246.859,39.386 246.443 C 39.518 246.027,39.994 245.590,40.443 245.473 C 40.892 245.355,41.352 244.905,41.465 244.473 C 41.583 244.021,42.129 243.594,42.747 243.471 C 43.754 243.269,45.044 242.352,47.042 240.416 C 47.505 239.967,48.084 239.600,48.329 239.600 C 50.492 239.600,52.514 234.571,50.971 233.029 C 50.256 232.313,41.757 232.147,40.091 232.816 M338.851 248.274 C 338.599 252.633,338.394 258.495,338.396 261.300 L 338.400 266.400 335.449 266.400 C 332.436 266.400,330.684 265.613,331.952 264.830 C 332.659 264.392,333.600 262.467,333.600 261.454 C 333.601 260.984,334.051 260.077,334.600 259.438 C 335.369 258.544,335.600 257.828,335.600 256.338 C 335.600 255.272,335.741 254.400,335.914 254.400 C 337.083 254.400,337.600 251.956,337.600 246.421 C 337.600 242.457,337.749 240.602,338.100 240.217 C 339.164 239.047,339.300 240.507,338.851 248.274 M96.398 251.300 C 96.397 252.317,95.996 253.790,95.398 254.968 C 94.698 256.349,94.400 257.584,94.400 259.111 C 94.400 261.034,94.319 261.250,93.700 260.975 C 92.189 260.304,89.716 260.308,89.150 260.983 C 88.847 261.343,88.363 261.855,88.072 262.119 C 87.782 262.384,87.169 263.000,86.709 263.490 C 86.249 263.979,85.272 264.578,84.537 264.821 C 83.801 265.064,83.200 265.420,83.200 265.612 C 83.200 265.805,82.413 266.311,81.452 266.736 C 80.490 267.161,79.579 267.710,79.428 267.955 C 78.989 268.666,75.178 268.504,74.331 267.738 C 72.447 266.032,75.011 259.600,77.576 259.600 C 77.794 259.600,78.509 259.105,79.164 258.500 C 79.820 257.895,80.591 257.184,80.878 256.919 C 81.165 256.655,81.616 256.205,81.881 255.919 C 83.122 254.579,83.438 254.484,84.778 255.048 C 87.127 256.035,89.999 255.550,91.098 253.981 C 91.399 253.552,91.911 253.200,92.236 253.200 C 92.560 253.200,92.955 252.883,93.113 252.496 C 94.217 249.787,96.401 248.992,96.398 251.300 M182.400 258.953 C 182.400 262.328,182.322 262.727,181.626 262.909 C 181.111 263.044,180.759 263.611,180.572 264.609 C 180.337 265.860,180.038 266.212,178.750 266.753 C 177.902 267.109,177.206 267.625,177.204 267.900 C 177.202 268.175,176.840 268.400,176.400 268.400 C 175.376 268.400,175.164 263.342,176.172 262.955 C 176.923 262.667,177.600 260.669,177.600 258.740 C 177.600 257.598,177.765 257.200,178.237 257.200 C 178.588 257.200,178.966 256.850,179.078 256.422 C 179.212 255.911,179.712 255.590,180.541 255.486 C 181.233 255.399,181.935 255.299,182.100 255.264 C 182.265 255.229,182.400 256.889,182.400 258.953 M312.400 258.904 C 312.400 262.143,312.302 262.669,311.620 263.095 C 311.191 263.363,310.726 264.185,310.588 264.922 C 310.387 265.993,310.057 266.363,308.942 266.766 C 308.175 267.044,307.450 267.525,307.331 267.835 C 307.212 268.146,306.774 268.400,306.357 268.400 C 305.186 268.400,305.246 263.815,306.430 262.857 C 307.048 262.355,307.317 261.552,307.485 259.692 C 307.649 257.882,307.870 257.200,308.293 257.200 C 308.613 257.200,308.966 256.850,309.078 256.422 C 309.212 255.911,309.712 255.590,310.541 255.486 C 311.233 255.399,311.935 255.299,312.100 255.264 C 312.265 255.229,312.400 256.867,312.400 258.904 M108.400 258.176 C 108.400 258.493,108.220 258.864,108.000 259.000 C 107.780 259.136,107.600 258.877,107.600 258.424 C 107.600 257.971,107.780 257.600,108.000 257.600 C 108.220 257.600,108.400 257.859,108.400 258.176 " stroke="none" fill="#545454" fill-rule="evenodd"></path><path id="path1" d="M167.687 108.873 C 167.419 109.141,167.200 109.214,167.200 109.036 C 167.200 108.857,166.868 109.121,166.463 109.621 C 166.058 110.122,165.324 110.593,164.832 110.668 C 163.972 110.799,162.800 111.677,162.800 112.191 C 162.800 112.327,162.332 112.841,161.761 113.332 C 160.366 114.532,159.893 118.967,160.982 120.629 C 161.644 121.639,161.797 121.676,164.749 121.541 C 167.953 121.394,168.083 121.331,170.832 118.600 C 172.813 116.632,173.157 116.108,173.425 114.645 C 173.582 113.790,174.045 112.755,174.455 112.345 C 175.615 111.185,175.202 109.846,173.400 108.919 C 172.243 108.324,168.269 108.291,167.687 108.873 M217.940 108.649 C 216.744 109.001,216.229 110.975,216.954 112.428 C 217.302 113.126,217.489 113.855,217.370 114.049 C 217.251 114.242,217.414 114.400,217.733 114.400 C 218.052 114.400,218.427 114.854,218.567 115.410 C 218.797 116.326,221.585 119.600,222.135 119.600 C 222.261 119.600,222.809 120.046,223.354 120.590 C 224.670 121.907,229.580 122.020,230.837 120.763 C 232.208 119.392,231.689 114.800,230.162 114.800 C 229.827 114.800,229.664 114.620,229.800 114.400 C 229.936 114.180,229.857 114.000,229.624 114.000 C 229.391 114.000,229.221 113.865,229.247 113.700 C 229.482 112.213,227.134 110.144,225.794 110.658 C 225.343 110.831,225.164 110.782,225.322 110.527 C 226.207 109.094,220.957 107.758,217.940 108.649 M238.557 113.724 C 238.093 114.206,237.317 114.870,236.832 115.200 C 235.543 116.077,234.400 118.113,234.400 119.533 C 234.400 120.362,234.136 120.913,233.600 121.200 C 233.160 121.435,232.800 121.864,232.800 122.152 C 232.800 122.506,232.246 122.670,231.100 122.655 C 228.529 122.623,226.400 123.150,226.400 123.818 C 226.400 124.180,226.002 124.400,225.346 124.400 C 223.394 124.400,221.277 125.262,221.038 126.154 C 220.153 129.452,221.400 131.207,224.914 131.607 C 226.282 131.763,227.130 131.922,226.800 131.959 C 226.404 132.005,226.540 132.223,227.200 132.600 C 228.748 133.485,232.251 133.370,233.292 132.400 C 233.764 131.960,234.644 131.600,235.247 131.600 C 236.418 131.600,237.756 130.576,237.380 129.968 C 237.255 129.765,237.343 129.578,237.576 129.550 C 238.385 129.455,238.603 129.386,239.100 129.070 C 239.375 128.896,239.600 128.853,239.600 128.976 C 239.600 129.099,239.931 128.885,240.337 128.500 C 240.742 128.115,241.009 127.677,240.930 127.528 C 240.851 127.378,240.970 127.142,241.193 127.004 C 241.417 126.866,241.600 126.424,241.600 126.023 C 241.600 125.622,241.946 125.203,242.369 125.092 C 243.800 124.718,244.105 114.846,242.729 113.471 C 241.779 112.522,239.586 112.656,238.557 113.724 M149.722 114.789 C 147.860 115.572,147.865 123.848,149.729 126.556 C 150.318 127.412,150.800 128.337,150.800 128.613 C 150.800 129.225,151.913 129.701,152.498 129.339 C 152.732 129.195,152.813 129.255,152.678 129.473 C 152.311 130.067,153.598 131.686,154.242 131.439 C 154.549 131.322,154.800 131.412,154.800 131.641 C 154.800 133.050,156.099 133.399,161.668 133.491 C 167.370 133.585,169.200 133.271,169.200 132.200 C 169.200 131.859,169.650 131.409,170.200 131.200 C 172.256 130.418,171.370 127.139,168.948 126.570 C 168.317 126.421,167.510 125.937,167.155 125.493 C 166.629 124.834,165.860 124.641,162.969 124.443 L 159.427 124.200 159.074 122.700 C 158.873 121.849,158.478 121.200,158.160 121.200 C 157.844 121.200,157.600 120.803,157.600 120.289 C 157.600 119.324,156.601 117.615,155.724 117.080 C 155.436 116.904,155.200 116.576,155.200 116.352 C 155.200 115.063,151.548 114.021,149.722 114.789 M249.491 123.443 C 249.361 123.572,249.363 123.960,249.496 124.305 C 249.647 124.700,249.573 124.831,249.296 124.659 C 249.053 124.509,248.740 124.573,248.600 124.800 C 248.460 125.027,248.222 125.139,248.072 125.049 C 247.586 124.754,246.800 125.850,246.800 126.824 C 246.800 127.057,246.644 127.151,246.453 127.033 C 245.880 126.679,244.886 128.102,244.589 129.700 C 244.427 130.572,244.080 131.200,243.760 131.200 C 243.427 131.200,243.108 131.832,242.954 132.800 L 242.698 134.400 238.649 134.406 C 234.579 134.412,232.489 134.952,232.703 135.941 C 232.760 136.203,232.360 136.587,231.814 136.795 C 229.828 137.550,230.213 141.225,232.310 141.527 C 232.796 141.597,233.450 142.022,233.765 142.471 C 234.079 142.920,234.518 143.174,234.740 143.037 C 234.963 142.899,235.258 142.970,235.396 143.193 C 236.025 144.211,244.160 143.671,245.550 142.519 C 246.267 141.925,247.126 141.399,247.458 141.350 C 248.628 141.179,249.200 140.819,249.200 140.256 C 249.200 139.943,249.638 139.577,250.173 139.442 C 250.709 139.308,251.274 138.794,251.431 138.299 C 251.587 137.805,252.094 137.070,252.557 136.667 C 253.708 135.665,254.103 126.160,253.038 125.096 C 252.687 124.744,252.400 124.213,252.400 123.914 C 252.400 123.615,252.040 123.343,251.600 123.310 C 251.160 123.277,250.800 123.441,250.800 123.674 C 250.800 123.962,250.628 123.955,250.263 123.652 C 249.968 123.407,249.620 123.313,249.491 123.443 M139.149 125.461 C 138.753 125.937,138.612 127.304,138.642 130.361 C 138.694 135.655,138.756 136.051,139.663 136.847 C 140.068 137.203,140.400 137.732,140.400 138.022 C 140.400 138.991,142.175 141.157,143.174 141.408 C 143.716 141.544,144.565 142.093,145.061 142.628 C 145.556 143.162,146.411 143.600,146.961 143.600 C 147.511 143.600,148.144 143.915,148.368 144.300 C 148.592 144.685,148.784 144.820,148.794 144.600 C 148.804 144.380,148.983 144.470,149.192 144.800 C 149.848 145.838,155.199 145.601,156.316 144.484 C 156.923 143.877,157.684 143.600,158.746 143.600 C 161.237 143.600,162.810 142.012,161.847 140.470 C 161.665 140.179,161.480 139.413,161.435 138.767 C 161.322 137.141,160.762 136.717,158.424 136.493 C 157.116 136.367,156.400 136.112,156.400 135.772 C 156.400 135.461,156.073 135.309,155.600 135.400 C 155.160 135.485,154.800 135.370,154.800 135.144 C 154.800 134.891,153.747 134.785,152.050 134.867 C 150.029 134.965,149.349 134.873,149.485 134.519 C 149.587 134.255,149.523 133.805,149.342 133.519 C 149.160 133.234,149.009 132.871,149.006 132.713 C 149.003 132.555,148.685 132.058,148.300 131.608 C 147.915 131.159,147.600 130.524,147.600 130.199 C 147.600 129.873,147.238 129.381,146.795 129.104 C 146.353 128.828,145.517 127.852,144.938 126.936 C 144.352 126.010,143.662 125.355,143.383 125.462 C 143.107 125.568,142.762 125.462,142.617 125.227 C 142.204 124.558,139.762 124.723,139.149 125.461 M256.992 139.538 C 256.385 140.220,255.733 140.682,255.544 140.565 C 255.355 140.448,255.200 140.554,255.200 140.800 C 255.200 141.046,255.032 141.144,254.828 141.017 C 254.623 140.891,254.340 140.973,254.200 141.200 C 254.060 141.427,253.773 141.507,253.562 141.377 C 253.352 141.247,253.206 141.289,253.237 141.470 C 253.389 142.340,253.157 143.200,252.771 143.200 C 252.220 143.200,251.173 144.239,251.448 144.514 C 251.739 144.806,250.323 146.400,249.773 146.400 C 249.526 146.400,249.019 146.063,248.645 145.650 C 248.272 145.238,247.479 144.852,246.883 144.793 C 244.428 144.551,240.239 144.814,239.984 145.227 C 239.833 145.470,239.604 145.662,239.473 145.655 C 239.343 145.647,238.688 146.122,238.018 146.709 C 236.227 148.281,236.543 151.200,238.504 151.200 C 238.812 151.200,239.307 151.653,239.604 152.207 C 239.985 152.919,240.594 153.286,241.686 153.460 C 242.598 153.606,243.472 154.053,243.822 154.553 C 244.750 155.879,252.211 155.836,253.099 154.500 C 253.524 153.861,254.091 153.600,255.053 153.600 C 255.901 153.600,256.657 153.308,257.075 152.820 C 257.442 152.392,257.918 152.150,258.133 152.282 C 258.348 152.415,258.403 152.328,258.255 152.089 C 258.107 151.850,258.369 151.387,258.837 151.059 C 259.304 150.732,259.567 150.270,259.420 150.032 C 259.273 149.794,259.343 149.600,259.576 149.600 C 260.446 149.600,261.600 147.973,261.600 146.747 C 261.600 145.954,261.923 145.214,262.479 144.731 C 263.461 143.880,263.793 140.035,262.957 139.198 C 261.786 138.025,258.156 138.232,256.992 139.538 M129.589 139.813 C 128.443 141.194,128.891 147.285,130.085 146.548 C 130.258 146.440,130.410 146.498,130.423 146.676 C 130.646 149.812,130.882 150.309,133.286 152.714 C 135.816 155.243,136.357 155.516,139.147 155.667 C 140.321 155.731,141.042 155.998,141.343 156.481 C 141.607 156.903,142.269 157.200,142.945 157.200 C 143.925 157.200,144.023 157.290,143.600 157.800 C 143.326 158.130,142.629 158.402,142.051 158.405 C 140.329 158.414,139.241 158.842,138.999 159.603 C 138.874 159.998,138.320 160.434,137.769 160.572 C 137.218 160.710,136.875 160.998,137.007 161.212 C 137.387 161.826,136.069 161.664,135.004 160.966 C 134.471 160.617,133.847 160.447,133.618 160.589 C 133.388 160.731,133.200 160.644,133.200 160.395 C 133.200 159.732,132.067 158.711,131.631 158.981 C 131.424 159.109,131.153 159.047,131.027 158.844 C 129.869 156.970,122.400 158.837,122.400 161.001 C 122.400 162.095,123.753 164.914,124.107 164.559 C 124.228 164.439,124.457 164.750,124.616 165.251 C 124.946 166.289,125.753 167.200,126.342 167.200 C 126.562 167.200,127.125 167.687,127.593 168.282 C 128.336 169.227,128.787 169.386,131.122 169.527 C 132.609 169.617,134.079 169.934,134.428 170.241 C 134.963 170.712,135.170 170.707,135.828 170.210 C 136.334 169.827,137.590 169.621,139.471 169.613 C 141.535 169.604,142.520 169.423,142.971 168.971 C 143.317 168.626,143.600 168.473,143.600 168.633 C 143.600 168.792,143.936 168.535,144.347 168.061 C 144.758 167.588,145.208 167.200,145.347 167.200 C 145.903 167.200,147.258 165.496,147.316 164.724 C 147.350 164.272,147.792 163.713,148.298 163.482 C 150.715 162.381,149.647 156.690,147.077 156.972 C 146.482 157.037,146.073 156.896,146.119 156.643 C 146.254 155.903,146.926 155.613,148.519 155.606 C 149.595 155.602,150.295 155.324,150.919 154.656 C 151.404 154.136,152.205 153.584,152.700 153.429 C 153.195 153.273,153.600 152.978,153.600 152.773 C 153.600 152.568,153.825 152.445,154.100 152.500 C 154.375 152.555,154.555 152.375,154.500 152.100 C 154.445 151.825,154.589 151.600,154.821 151.600 C 156.249 151.600,154.986 147.395,153.400 146.869 C 151.265 146.160,142.805 146.365,141.861 147.149 C 141.291 147.623,141.200 147.606,141.200 147.025 C 141.200 146.182,138.411 142.800,137.715 142.800 C 137.432 142.800,137.200 142.607,137.200 142.371 C 137.200 141.524,135.997 140.767,134.519 140.684 C 133.690 140.638,132.695 140.285,132.306 139.900 C 131.435 139.036,130.265 138.999,129.589 139.813 M243.155 157.245 C 242.299 158.101,242.275 160.600,243.116 161.168 C 243.305 161.295,243.807 162.027,244.230 162.793 C 245.133 164.426,245.801 165.200,246.307 165.200 C 246.508 165.200,246.872 165.640,247.117 166.178 C 247.430 166.864,248.017 167.241,249.082 167.439 C 249.917 167.594,250.930 168.099,251.333 168.560 C 252.287 169.652,260.541 169.853,261.208 168.800 C 261.417 168.470,261.591 168.363,261.594 168.561 C 261.597 168.760,261.915 168.563,262.300 168.124 C 262.685 167.685,263.209 167.397,263.464 167.484 C 263.720 167.571,264.491 167.093,265.178 166.421 C 265.865 165.750,266.598 165.200,266.806 165.200 C 267.014 165.200,267.298 164.750,267.436 164.200 C 267.574 163.650,267.942 163.200,268.253 163.200 C 269.846 163.200,270.138 157.971,268.601 156.964 C 267.109 155.986,262.159 156.317,261.237 157.455 C 260.870 157.908,259.941 158.397,259.172 158.541 C 258.403 158.686,257.515 159.163,257.199 159.602 C 256.462 160.624,256.092 160.606,255.018 159.500 C 254.202 158.659,251.731 157.085,251.133 157.026 C 250.987 157.012,250.732 156.865,250.567 156.700 C 249.819 155.952,244.022 156.378,243.155 157.245 M245.698 169.834 C 245.450 170.098,245.349 170.415,245.472 170.538 C 245.595 170.661,245.404 171.053,245.048 171.410 C 244.329 172.128,244.172 174.212,244.807 174.604 C 245.030 174.742,245.107 175.027,244.978 175.236 C 244.849 175.445,245.206 176.167,245.771 176.839 C 246.337 177.511,246.800 178.305,246.800 178.604 C 246.800 178.902,247.151 179.257,247.580 179.394 C 248.008 179.530,248.470 179.992,248.606 180.420 C 248.743 180.849,249.016 181.200,249.213 181.200 C 249.411 181.200,250.125 181.740,250.800 182.400 C 251.848 183.425,252.334 183.600,254.125 183.600 C 255.727 183.600,256.384 183.789,256.907 184.400 C 257.785 185.425,261.457 185.549,262.167 184.577 C 262.417 184.235,263.400 183.780,264.351 183.567 C 266.109 183.172,267.200 182.420,267.200 181.605 C 267.200 181.356,267.371 181.258,267.579 181.387 C 267.787 181.516,268.798 180.781,269.825 179.753 C 271.877 177.702,272.139 175.300,270.508 173.498 C 269.618 172.515,264.836 172.682,263.670 173.736 C 263.267 174.101,262.289 174.400,261.497 174.400 C 260.705 174.400,259.796 174.661,259.476 174.981 C 259.157 175.300,258.784 175.450,258.648 175.314 C 258.511 175.178,258.400 175.367,258.400 175.733 C 258.400 176.100,258.220 176.400,258.000 176.400 C 257.780 176.400,257.600 176.241,257.600 176.047 C 257.600 175.475,254.356 172.400,253.753 172.400 C 253.449 172.400,253.200 172.141,253.200 171.824 C 253.200 171.012,252.655 170.763,250.498 170.588 C 249.462 170.503,248.431 170.201,248.207 169.917 C 247.687 169.256,246.281 169.210,245.698 169.834 M142.829 171.547 C 142.585 172.002,141.783 172.396,140.774 172.558 C 139.626 172.741,139.059 173.054,138.922 173.577 C 138.813 173.993,138.291 174.441,137.762 174.574 C 137.233 174.707,136.800 175.101,136.800 175.450 C 136.800 175.841,136.577 176.000,136.220 175.863 C 135.814 175.707,135.714 175.833,135.887 176.282 C 136.246 177.218,133.074 176.650,131.442 175.486 C 129.708 174.249,122.966 174.164,121.642 175.362 C 120.546 176.354,120.570 177.887,121.700 178.976 C 122.195 179.453,122.659 180.101,122.732 180.418 C 122.805 180.734,123.075 181.126,123.332 181.290 C 123.589 181.454,123.630 181.591,123.422 181.594 C 123.215 181.597,123.655 182.050,124.400 182.600 C 125.145 183.150,125.892 183.600,126.060 183.600 C 126.227 183.600,126.814 184.050,127.364 184.600 C 129.096 186.332,141.200 185.991,141.200 184.210 C 141.200 183.867,141.550 183.600,142.000 183.600 C 143.109 183.600,143.055 183.714,140.829 186.048 C 139.041 187.923,138.047 189.780,138.558 190.292 C 139.642 191.375,136.332 192.341,131.100 192.468 C 124.737 192.622,124.578 192.704,124.651 195.801 C 124.710 198.270,125.298 199.089,127.277 199.457 C 128.005 199.592,128.905 200.085,129.277 200.551 C 130.335 201.878,138.962 201.838,140.300 200.500 C 140.795 200.005,141.471 199.600,141.802 199.600 C 142.451 199.600,146.000 196.199,146.000 195.576 C 146.000 195.369,146.251 195.200,146.557 195.200 C 147.283 195.200,147.600 194.319,147.600 192.301 C 147.600 191.402,147.711 190.778,147.848 190.914 C 148.617 191.684,149.400 189.711,149.400 187.001 C 149.400 183.381,148.915 182.800,145.895 182.800 C 144.277 182.800,143.733 182.655,143.733 182.222 C 143.733 181.904,143.927 181.679,144.163 181.722 C 144.399 181.765,144.864 181.219,145.196 180.509 C 145.528 179.798,146.029 179.213,146.310 179.209 C 147.002 179.197,147.469 177.789,147.545 175.489 C 147.579 174.438,147.635 173.448,147.668 173.289 C 148.115 171.169,143.852 169.634,142.829 171.547 M244.800 181.192 C 244.800 181.442,244.665 181.565,244.500 181.466 C 244.335 181.366,243.968 181.535,243.684 181.842 C 243.401 182.149,243.311 182.403,243.484 182.406 C 243.658 182.409,243.549 182.571,243.243 182.765 C 242.241 183.400,242.563 187.875,243.678 188.804 C 244.304 189.326,244.414 189.578,244.020 189.587 C 243.569 189.597,243.547 189.707,243.920 190.080 C 244.184 190.344,244.400 190.885,244.400 191.281 C 244.400 192.034,245.987 195.284,246.018 194.594 C 246.027 194.377,246.383 194.858,246.808 195.663 C 247.443 196.865,247.869 197.175,249.191 197.398 C 250.159 197.562,250.800 197.890,250.800 198.221 C 250.800 199.799,263.169 200.275,264.032 198.730 C 264.238 198.362,265.035 197.853,265.803 197.599 C 267.367 197.083,267.837 196.018,267.479 193.808 C 267.249 192.389,265.822 190.616,265.213 190.992 C 265.016 191.114,264.746 191.037,264.613 190.821 C 264.477 190.601,262.448 190.442,259.982 190.459 C 255.076 190.491,253.600 189.973,253.600 188.219 C 253.600 187.690,253.339 186.996,253.019 186.676 C 252.700 186.357,252.550 185.984,252.686 185.848 C 252.822 185.711,252.662 185.600,252.331 185.600 C 252.000 185.600,251.531 185.166,251.289 184.637 C 250.447 182.789,244.800 179.791,244.800 181.192 M237.398 195.366 C 236.445 196.480,236.172 204.791,237.078 205.093 C 237.340 205.180,237.465 205.487,237.355 205.774 C 237.244 206.062,237.434 206.404,237.777 206.536 C 238.120 206.667,238.400 207.119,238.400 207.539 C 238.400 208.246,239.708 209.718,242.824 212.516 C 243.626 213.238,244.326 213.550,244.801 213.400 C 245.313 213.237,245.614 213.415,245.797 213.989 C 245.940 214.441,246.209 214.718,246.395 214.603 C 246.580 214.489,246.807 214.621,246.899 214.898 C 247.232 215.893,253.949 215.550,254.805 214.494 C 255.305 213.875,255.962 213.600,256.936 213.600 C 258.988 213.600,259.532 212.850,259.386 210.220 C 259.230 207.419,258.621 206.806,255.700 206.506 C 254.314 206.364,253.219 206.024,252.943 205.650 C 252.508 205.059,251.758 204.905,248.945 204.832 C 247.822 204.803,247.660 204.643,247.411 203.318 C 247.258 202.503,246.812 201.557,246.420 201.217 C 246.028 200.877,245.585 200.040,245.434 199.357 C 245.275 198.631,244.754 197.896,244.181 197.590 C 243.641 197.301,243.200 196.812,243.200 196.504 C 243.200 195.042,238.468 194.114,237.398 195.366 M151.223 196.722 C 150.374 197.011,148.737 198.744,148.631 199.466 C 148.581 199.810,148.114 200.413,147.593 200.806 C 146.910 201.320,146.580 202.062,146.411 203.460 C 146.264 204.681,145.996 205.363,145.688 205.300 C 145.420 205.245,145.221 205.335,145.247 205.500 C 145.397 206.446,144.918 206.602,141.804 206.624 C 138.946 206.645,138.270 206.780,137.506 207.481 C 137.008 207.939,135.970 208.444,135.200 208.603 C 133.000 209.058,131.649 212.041,133.207 213.004 C 133.430 213.142,133.509 213.423,133.383 213.628 C 133.256 213.832,133.316 214.000,133.515 214.000 C 133.715 214.000,134.293 214.360,134.800 214.800 C 136.961 216.674,149.600 215.806,149.600 213.784 C 149.600 213.477,149.842 213.318,150.138 213.431 C 150.819 213.693,152.873 211.793,153.758 210.082 C 154.130 209.362,154.586 208.868,154.772 208.982 C 155.585 209.485,156.021 198.485,155.237 197.246 C 154.885 196.690,152.305 196.353,151.223 196.722 M227.600 204.746 C 226.128 206.262,226.051 215.458,227.500 216.714 C 227.995 217.143,228.400 217.661,228.400 217.866 C 228.400 218.706,232.486 223.130,233.382 223.261 C 233.612 223.294,233.980 223.364,234.200 223.415 C 234.420 223.466,234.825 223.528,235.100 223.554 C 235.375 223.579,235.600 223.881,235.600 224.224 C 235.600 224.567,235.765 224.745,235.966 224.621 C 236.167 224.497,236.407 224.621,236.499 224.898 C 236.790 225.770,243.436 225.578,244.094 224.677 C 244.384 224.280,245.400 223.780,246.351 223.567 C 250.667 222.597,249.298 217.260,244.545 216.526 C 243.695 216.395,242.460 215.998,241.800 215.644 C 241.140 215.290,239.880 214.910,239.000 214.800 C 237.720 214.640,237.374 214.420,237.272 213.700 C 237.202 213.205,236.999 212.800,236.821 212.800 C 236.427 212.800,235.749 211.072,235.439 209.277 C 235.206 207.927,234.388 206.800,233.641 206.800 C 233.412 206.800,233.322 206.549,233.439 206.242 C 233.700 205.563,232.145 204.400,230.978 204.400 C 230.513 204.400,230.008 204.275,229.855 204.122 C 229.283 203.549,228.571 203.746,227.600 204.746 M161.196 205.405 C 160.814 205.865,160.563 205.901,160.147 205.556 C 159.640 205.135,159.427 205.341,159.560 206.121 C 159.590 206.298,159.341 206.716,159.007 207.050 C 158.673 207.384,158.400 207.914,158.400 208.229 C 158.400 208.543,158.152 208.800,157.849 208.800 C 157.221 208.800,156.488 210.426,156.316 212.200 C 156.248 212.902,155.993 213.359,155.700 213.300 C 155.425 213.245,155.224 213.335,155.254 213.500 C 155.572 215.288,154.652 216.400,152.850 216.402 C 150.363 216.405,148.081 217.081,147.519 217.982 C 147.265 218.388,146.843 218.638,146.580 218.537 C 146.318 218.436,145.801 218.656,145.433 219.025 C 145.064 219.393,144.661 219.595,144.538 219.472 C 144.078 219.011,143.267 220.184,143.689 220.700 C 143.974 221.049,143.955 221.200,143.625 221.200 C 143.365 221.200,143.264 221.380,143.400 221.600 C 143.536 221.820,143.457 222.000,143.224 222.000 C 142.478 222.000,142.770 223.849,143.641 224.638 C 144.384 225.312,145.261 225.415,151.201 225.526 L 157.920 225.652 159.174 224.426 C 159.863 223.752,160.589 223.200,160.787 223.200 C 160.984 223.200,161.257 222.849,161.394 222.420 C 161.530 221.992,161.983 221.533,162.400 221.400 C 162.817 221.267,163.282 220.773,163.431 220.302 C 163.581 219.830,164.085 219.136,164.552 218.758 C 165.803 217.745,165.865 206.276,164.624 205.368 C 163.606 204.624,161.828 204.643,161.196 205.405 " stroke="none" fill="#439b1c" fill-rule="evenodd"></path></g></svg>